<svg width="122" height="122" viewBox="0 0 122 122" fill="none" xmlns="http://www.w3.org/2000/svg">
<path d="M25.4167 106.75C22.6208 106.75 20.2266 105.755 18.2339 103.766C16.2446 101.773 15.25 99.3792 15.25 96.5833V25.4167C15.25 22.6208 16.2446 20.2266 18.2339 18.2339C20.2266 16.2446 22.6208 15.25 25.4167 15.25H96.5833C99.3792 15.25 101.773 16.2446 103.766 18.2339C105.755 20.2266 106.75 22.6208 106.75 25.4167V59.475C105.14 58.7125 103.488 58.0551 101.794 57.5027C100.099 56.9537 98.3625 56.5521 96.5833 56.2979V25.4167H25.4167V96.5833H56.1708C56.425 98.4472 56.8283 100.226 57.3807 101.921C57.9297 103.615 58.5854 105.225 59.3479 106.75H25.4167ZM25.4167 91.5V96.5833V25.4167V56.2979V55.9167V91.5ZM35.5833 86.4167H56.2979C56.5521 84.6375 56.9537 82.9007 57.5027 81.2062C58.0551 79.5118 58.6701 77.8597 59.3479 76.25H35.5833V86.4167ZM35.5833 66.0833H66.5917C69.3028 63.5417 72.3307 61.4236 75.6756 59.7292C79.0238 58.0347 82.6042 56.891 86.4167 56.2979V55.9167H35.5833V66.0833ZM35.5833 45.75H86.4167V35.5833H35.5833V45.75ZM91.5 116.917C84.468 116.917 78.4748 114.439 73.5202 109.485C68.5623 104.527 66.0833 98.5319 66.0833 91.5C66.0833 84.468 68.5623 78.4731 73.5202 73.5152C78.4748 68.5606 84.468 66.0833 91.5 66.0833C98.5319 66.0833 104.527 68.5606 109.485 73.5152C114.439 78.4731 116.917 84.468 116.917 91.5C116.917 98.5319 114.439 104.527 109.485 109.485C104.527 114.439 98.5319 116.917 91.5 116.917ZM88.9583 106.75H94.0417V94.0417H106.75V88.9583H94.0417V76.25H88.9583V88.9583H76.25V94.0417H88.9583V106.75Z" fill="white"/>
</svg>
