<svg width="34" height="34" viewBox="0 0 34 34" fill="none" xmlns="http://www.w3.org/2000/svg">
<path d="M18.4166 4.95833C18.4166 4.39475 18.1927 3.85425 17.7942 3.45573C17.3957 3.05722 16.8552 2.83333 16.2916 2.83333C15.728 2.83333 15.1875 3.05722 14.789 3.45573C14.3905 3.85425 14.1666 4.39475 14.1666 4.95833V14.1667H4.95825C4.39467 14.1667 3.85416 14.3906 3.45565 14.7891C3.05714 15.1876 2.83325 15.7281 2.83325 16.2917C2.83325 16.8553 3.05714 17.3958 3.45565 17.7943C3.85416 18.1928 4.39467 18.4167 4.95825 18.4167H14.1666V27.625C14.1666 28.1886 14.3905 28.7291 14.789 29.1276C15.1875 29.5261 15.728 29.75 16.2916 29.75C16.8552 29.75 17.3957 29.5261 17.7942 29.1276C18.1927 28.7291 18.4166 28.1886 18.4166 27.625V18.4167H27.6249C28.1885 18.4167 28.729 18.1928 29.1275 17.7943C29.526 17.3958 29.7499 16.8553 29.7499 16.2917C29.7499 15.7281 29.526 15.1876 29.1275 14.7891C28.729 14.3906 28.1885 14.1667 27.6249 14.1667H18.4166V4.95833Z" fill="black"/>
</svg>
