<svg width="39" height="39" viewBox="0 0 39 39" fill="none" xmlns="http://www.w3.org/2000/svg">
<path d="M12.1875 4.875V10.9688C12.1875 11.9384 12.5727 12.8684 13.2584 13.5541C13.9441 14.2398 14.8741 14.625 15.8438 14.625H20.7188C21.6884 14.625 22.6184 14.2398 23.3041 13.5541C23.9898 12.8684 24.375 11.9384 24.375 10.9688V4.875H25.2988C26.5916 4.87528 27.8314 5.38907 28.7454 6.30337L32.6966 10.2546C33.6109 11.1686 34.1247 12.4084 34.125 13.7012V29.25C34.125 30.5429 33.6114 31.7829 32.6971 32.6971C31.7829 33.6114 30.5429 34.125 29.25 34.125V23.1562C29.25 22.1866 28.8648 21.2566 28.1791 20.5709C27.4934 19.8852 26.5634 19.5 25.5938 19.5H13.4062C11.3904 19.5 9.75 21.1307 9.75 23.1514V34.125C8.45707 34.125 7.21709 33.6114 6.30285 32.6971C5.38861 31.7829 4.875 30.5429 4.875 29.25V9.75C4.875 8.45707 5.38861 7.21709 6.30285 6.30285C7.21709 5.38861 8.45707 4.875 9.75 4.875H12.1875ZM14.625 4.875V10.9688C14.625 11.292 14.7534 11.602 14.982 11.8305C15.2105 12.0591 15.5205 12.1875 15.8438 12.1875H20.7188C21.042 12.1875 21.352 12.0591 21.5805 11.8305C21.8091 11.602 21.9375 11.292 21.9375 10.9688V4.875H14.625ZM12.1875 34.125H26.8125V23.1562C26.8125 22.833 26.6841 22.523 26.4555 22.2945C26.227 22.0659 25.917 21.9375 25.5938 21.9375H13.4062C12.7311 21.9375 12.1875 22.4811 12.1875 23.1514V34.125Z" fill="black"/>
</svg>
