<svg width="22" height="22" viewBox="0 0 22 22" fill="none" xmlns="http://www.w3.org/2000/svg">
<path d="M15.396 6.75697C15.489 6.84984 15.5627 6.96013 15.6131 7.08153C15.6634 7.20293 15.6893 7.33306 15.6893 7.46447C15.6893 7.59589 15.6634 7.72601 15.6131 7.84741C15.5627 7.96881 15.489 8.0791 15.396 8.17197L12.414 11.153L15.09 13.828C15.2776 14.0156 15.3831 14.2701 15.3831 14.5355C15.3831 14.8008 15.2776 15.0553 15.09 15.243C14.9024 15.4306 14.6479 15.536 14.3825 15.536C14.1171 15.536 13.8626 15.4306 13.675 15.243L11 12.567L8.32501 15.243C8.13736 15.4306 7.88287 15.536 7.61751 15.536C7.35214 15.536 7.09765 15.4306 6.91001 15.243C6.72236 15.0553 6.61695 14.8008 6.61695 14.5355C6.61695 14.2701 6.72236 14.0156 6.91001 13.828L9.58601 11.153L6.60401 8.17197C6.5111 8.079 6.43741 7.96863 6.38715 7.84718C6.33689 7.72572 6.31105 7.59556 6.3111 7.46412C6.31114 7.33268 6.33708 7.20253 6.38742 7.08111C6.43776 6.9597 6.51153 6.84938 6.60451 6.75647C6.69748 6.66356 6.80785 6.58987 6.9293 6.53962C7.05075 6.48936 7.18092 6.46352 7.31236 6.46356C7.4438 6.46361 7.57395 6.48954 7.69536 6.53989C7.81678 6.59023 7.9271 6.664 8.02001 6.75697L11 9.73997L13.981 6.75797C14.0739 6.665 14.1842 6.59124 14.3056 6.54091C14.427 6.49059 14.5571 6.46469 14.6885 6.46469C14.8199 6.46469 14.95 6.49059 15.0714 6.54091C15.1928 6.59124 15.3031 6.664 15.396 6.75697Z" fill="black"/>
<path fill-rule="evenodd" clip-rule="evenodd" d="M3 0C2.20435 0 1.44129 0.31607 0.87868 0.87868C0.31607 1.44129 0 2.20435 0 3V19C0 19.7956 0.31607 20.5587 0.87868 21.1213C1.44129 21.6839 2.20435 22 3 22H19C19.7956 22 20.5587 21.6839 21.1213 21.1213C21.6839 20.5587 22 19.7956 22 19V3C22 2.20435 21.6839 1.44129 21.1213 0.87868C20.5587 0.31607 19.7956 0 19 0H3ZM19 2H3C2.73478 2 2.48043 2.10536 2.29289 2.29289C2.10536 2.48043 2 2.73478 2 3V19C2 19.2652 2.10536 19.5196 2.29289 19.7071C2.48043 19.8946 2.73478 20 3 20H19C19.2652 20 19.5196 19.8946 19.7071 19.7071C19.8946 19.5196 20 19.2652 20 19V3C20 2.73478 19.8946 2.48043 19.7071 2.29289C19.5196 2.10536 19.2652 2 19 2Z" fill="black"/>
</svg>
